<svg xmlns="http://www.w3.org/2000/svg" viewBox="0 0 891 891"><defs><style>.cls-1{fill:#fff;}.cls-2{fill:#211915;}</style></defs><title>Recurso 2</title><g id="Capa_2" data-name="Capa 2"><g id="Capa_1-2" data-name="Capa 1"><circle class="cls-1" cx="445.5" cy="445.5" r="445.5"/><rect class="cls-2" x="330" y="363" width="33" height="33"/><rect class="cls-2" x="396" y="363" width="99" height="33"/><rect class="cls-2" x="396" y="429" width="99" height="33"/><rect class="cls-2" x="396" y="495" width="99" height="33"/><rect class="cls-2" x="264" y="495" width="99" height="33"/><rect class="cls-2" x="594" y="363" width="33" height="33"/><rect class="cls-2" x="528" y="363" width="33" height="33"/><rect class="cls-2" x="594" y="495" width="33" height="33"/><rect class="cls-2" x="528" y="495" width="33" height="33"/><path class="cls-2" d="M445.5,0C199.46,0,0,199.46,0,445.5S199.46,891,445.5,891,891,691.54,891,445.5,691.54,0,445.5,0Zm-.12,857.94c-227.86,0-412.57-184.71-412.57-412.56S217.52,32.81,445.38,32.81,857.94,217.52,857.94,445.38,673.23,857.94,445.38,857.94Z"/></g></g></svg>